<?xml version="1.0" encoding="UTF-8" standalone="no"?>
<!DOCTYPE svg PUBLIC "-//W3C//DTD SVG 1.1//EN"
 "http://www.w3.org/Graphics/SVG/1.1/DTD/svg11.dtd">
<!-- Generated by graphviz version 12.2.1 (0)
 -->
<!-- Title: id Pages: 1 -->
<svg width="208pt" height="116pt"
 viewBox="0.00 0.00 208.00 116.00" xmlns="http://www.w3.org/2000/svg" xmlns:xlink="http://www.w3.org/1999/xlink">
<g id="graph0" class="graph" transform="scale(1 1) rotate(0) translate(4 112)">
<title>id</title>
<polygon fill="white" stroke="none" points="-4,4 -4,-112 204,-112 204,4 -4,4"/>
<!-- nod -->
<g id="node1" class="node">
<title>nod</title>
<ellipse fill="none" stroke="black" cx="27" cy="-90" rx="27" ry="18"/>
<text text-anchor="middle" x="27" y="-84.95" font-family="Times,serif" font-size="14.00">nod</text>
</g>
<!-- a -->
<g id="node2" class="node">
<title>a</title>
<ellipse fill="none" stroke="black" cx="99" cy="-90" rx="27" ry="18"/>
<text text-anchor="middle" x="99" y="-84.95" font-family="Times,serif" font-size="14.00">a</text>
</g>
<!-- n -->
<g id="node3" class="node">
<title>n</title>
<polygon fill="none" stroke="black" points="101.66,-0.05 103.42,-0.15 105.16,-0.3 106.88,-0.49 108.57,-0.74 110.21,-1.03 111.81,-1.36 113.36,-1.75 114.85,-2.18 116.28,-2.65 117.64,-3.16 118.93,-3.71 120.14,-4.31 121.26,-4.94 122.31,-5.61 123.26,-6.31 124.13,-7.04 124.91,-7.8 125.59,-8.59 126.18,-9.41 126.67,-10.25 127.07,-11.11 127.37,-11.99 127.59,-12.89 127.71,-13.8 127.74,-14.72 127.69,-15.65 127.55,-16.59 127.33,-17.53 127.03,-18.47 126.65,-19.41 126.21,-20.35 125.69,-21.28 125.11,-22.2 124.47,-23.11 123.77,-24.01 123.02,-24.89 122.22,-25.75 121.37,-26.59 120.48,-27.41 119.56,-28.2 118.6,-28.96 117.61,-29.69 116.59,-30.39 115.54,-31.06 114.48,-31.69 113.39,-32.29 112.29,-32.84 111.18,-33.35 110.05,-33.82 108.91,-34.25 107.76,-34.64 106.61,-34.97 105.45,-35.26 104.28,-35.51 103.11,-35.7 101.94,-35.85 100.76,-35.95 99.59,-36 98.41,-36 97.24,-35.95 96.06,-35.85 94.89,-35.7 93.72,-35.51 92.55,-35.26 91.39,-34.97 90.24,-34.64 89.09,-34.25 87.95,-33.82 86.82,-33.35 85.71,-32.84 84.61,-32.29 83.52,-31.69 82.46,-31.06 81.41,-30.39 80.39,-29.69 79.4,-28.96 78.44,-28.2 77.52,-27.41 76.63,-26.59 75.78,-25.75 74.98,-24.89 74.23,-24.01 73.53,-23.11 72.89,-22.2 72.31,-21.28 71.79,-20.35 71.35,-19.41 70.97,-18.47 70.67,-17.53 70.45,-16.59 70.31,-15.65 70.26,-14.72 70.29,-13.8 70.41,-12.89 70.63,-11.99 70.93,-11.11 71.33,-10.25 71.82,-9.41 72.41,-8.59 73.09,-7.8 73.87,-7.04 74.74,-6.31 75.69,-5.61 76.74,-4.94 77.86,-4.31 79.07,-3.71 80.36,-3.16 81.72,-2.65 83.15,-2.18 84.64,-1.75 86.19,-1.36 87.79,-1.03 89.43,-0.74 91.12,-0.49 92.84,-0.3 94.58,-0.15 96.34,-0.05 98.11,0 99.89,0 101.66,-0.05"/>
<text text-anchor="middle" x="99" y="-12.95" font-family="Times,serif" font-size="14.00">n</text>
</g>
<!-- a&#45;&#45;n -->
<g id="edge1" class="edge">
<title>a&#45;&#45;n</title>
<path fill="none" stroke="black" d="M99,-71.7C99,-60.85 99,-46.92 99,-36.1"/>
</g>
<!-- a1 -->
<g id="node4" class="node">
<title>a1</title>
<ellipse fill="none" stroke="black" cx="173" cy="-90" rx="27" ry="18"/>
<text text-anchor="middle" x="173" y="-84.95" font-family="Times,serif" font-size="14.00">a1</text>
</g>
<!-- a2 -->
<g id="node5" class="node">
<title>a2</title>
<ellipse fill="none" stroke="black" cx="173" cy="-18" rx="27" ry="18"/>
<text text-anchor="middle" x="173" y="-12.95" font-family="Times,serif" font-size="14.00">a2</text>
</g>
<!-- a1&#45;&#45;a2 -->
<g id="edge2" class="edge">
<title>a1&#45;&#45;a2</title>
<path fill="none" stroke="black" d="M173,-71.7C173,-60.85 173,-46.92 173,-36.1"/>
</g>
</g>
</svg>
