<?xml version="1.0" encoding="UTF-8" standalone="no"?>
<!DOCTYPE svg PUBLIC "-//W3C//DTD SVG 1.1//EN"
 "http://www.w3.org/Graphics/SVG/1.1/DTD/svg11.dtd">
<!-- Generated by graphviz version 12.2.1 (0)
 -->
<!-- Pages: 1 -->
<svg width="194pt" height="332pt"
 viewBox="0.00 0.00 194.13 332.00" xmlns="http://www.w3.org/2000/svg" xmlns:xlink="http://www.w3.org/1999/xlink">
<g id="graph0" class="graph" transform="scale(1 1) rotate(0) translate(4 328)">
<polygon fill="white" stroke="none" points="-4,4 -4,-328 190.13,-328 190.13,4 -4,4"/>
<!-- 0 -->
<g id="node1" class="node">
<title>0</title>
<ellipse fill="none" stroke="black" cx="65.81" cy="-306" rx="27.3" ry="18"/>
<text text-anchor="middle" x="65.81" y="-300.95" font-family="Times,serif" font-size="14.00">&quot;aa&quot;</text>
</g>
<!-- 1 -->
<g id="node2" class="node">
<title>1</title>
<ellipse fill="none" stroke="black" cx="27.81" cy="-234" rx="27.81" ry="18"/>
<text text-anchor="middle" x="27.81" y="-228.95" font-family="Times,serif" font-size="14.00">&quot;be&quot;</text>
</g>
<!-- 0&#45;&gt;1 -->
<g id="edge1" class="edge">
<title>0&#45;&gt;1</title>
<path fill="none" stroke="black" d="M56.99,-288.76C52.53,-280.55 47.01,-270.37 41.97,-261.09"/>
<polygon fill="black" stroke="black" points="45.14,-259.6 37.3,-252.48 38.99,-262.94 45.14,-259.6"/>
</g>
<!-- 3 -->
<g id="node4" class="node">
<title>3</title>
<ellipse fill="none" stroke="black" cx="55.81" cy="-90" rx="31.39" ry="18"/>
<text text-anchor="middle" x="55.81" y="-84.95" font-family="Times,serif" font-size="14.00">&quot;aaa&quot;</text>
</g>
<!-- 0&#45;&gt;3 -->
<g id="edge4" class="edge">
<title>0&#45;&gt;3</title>
<path fill="none" stroke="black" d="M66.62,-287.56C67.8,-257.98 69.36,-196.07 64.81,-144 64.11,-135.97 62.85,-127.33 61.5,-119.41"/>
<polygon fill="black" stroke="black" points="64.95,-118.79 59.71,-109.58 58.06,-120.05 64.95,-118.79"/>
</g>
<!-- 2 -->
<g id="node3" class="node">
<title>2</title>
<ellipse fill="none" stroke="black" cx="28.81" cy="-162" rx="27" ry="18"/>
<text text-anchor="middle" x="28.81" y="-156.95" font-family="Times,serif" font-size="14.00">&quot;d&quot;</text>
</g>
<!-- 1&#45;&gt;2 -->
<g id="edge2" class="edge">
<title>1&#45;&gt;2</title>
<path fill="none" stroke="black" d="M28.06,-215.7C28.16,-208.41 28.28,-199.73 28.4,-191.54"/>
<polygon fill="black" stroke="black" points="31.9,-191.67 28.54,-181.62 24.9,-191.57 31.9,-191.67"/>
</g>
<!-- 2&#45;&gt;3 -->
<g id="edge3" class="edge">
<title>2&#45;&gt;3</title>
<path fill="none" stroke="black" d="M35.34,-144.05C38.33,-136.32 41.94,-126.96 45.29,-118.27"/>
<polygon fill="black" stroke="black" points="48.45,-119.79 48.79,-109.2 41.92,-117.27 48.45,-119.79"/>
</g>
<!-- 4 -->
<g id="node5" class="node">
<title>4</title>
<ellipse fill="none" stroke="black" cx="55.81" cy="-18" rx="32.93" ry="18"/>
<text text-anchor="middle" x="55.81" y="-12.95" font-family="Times,serif" font-size="14.00">&quot;bbb&quot;</text>
</g>
<!-- 3&#45;&gt;4 -->
<g id="edge5" class="edge">
<title>3&#45;&gt;4</title>
<path fill="none" stroke="black" d="M55.81,-71.7C55.81,-64.41 55.81,-55.73 55.81,-47.54"/>
<polygon fill="black" stroke="black" points="59.31,-47.62 55.81,-37.62 52.31,-47.62 59.31,-47.62"/>
</g>
<!-- 5 -->
<g id="node6" class="node">
<title>5</title>
<ellipse fill="none" stroke="black" cx="157.81" cy="-306" rx="27.81" ry="18"/>
<text text-anchor="middle" x="157.81" y="-300.95" font-family="Times,serif" font-size="14.00">&quot;a2&quot;</text>
</g>
<!-- 6 -->
<g id="node7" class="node">
<title>6</title>
<ellipse fill="none" stroke="black" cx="157.81" cy="-234" rx="28.32" ry="18"/>
<text text-anchor="middle" x="157.81" y="-228.95" font-family="Times,serif" font-size="14.00">&quot;b2&quot;</text>
</g>
<!-- 5&#45;&gt;6 -->
<g id="edge6" class="edge">
<title>5&#45;&gt;6</title>
<path fill="none" stroke="black" d="M157.81,-287.7C157.81,-280.41 157.81,-271.73 157.81,-263.54"/>
<polygon fill="black" stroke="black" points="161.31,-263.62 157.81,-253.62 154.31,-263.62 161.31,-263.62"/>
</g>
</g>
</svg>
